# xmcd
#
# Track frame offsets:
#	150
#	20454
#	38194
#	55065
#	73349
#	93048
#	109280
#	127037
#	144501
#	162582
#	182879
#	201427
#	216988
#	235980
#	251358
#	280685
#
# Disc length: 3748 seconds
#
# Revision: 1
# Processed by: cddbd v1.5.2PL0 Copyright (c) Steve Scherf et al.
# Submitted via: audiograbber 1.83.01
#
DISCID=f30ea210
DTITLE=Various Artist - ASK39 Mixed Country vol.3 d1
DYEAR=1900
DGENRE=Country
TTITLE0=Alan Jackson - Remember When
TTITLE1=Alan Jackson/Jimmy Buffett - Five o'clock somewhere  
TTITLE2=Brad Paisley - Celebrity
TTITLE3=Brad Paisley - I wish you'd stay
TTITLE4=Brooks and Dunn - Red dirt road
TTITLE5=Brooks and Dunn - You can't take the country out of the girl
TTITLE6=Buddy Jewel - Help pour out the rain
TTITLE7=Craig Morgan - Every Friday afternoon
TTITLE8=Daryl Worley - Have you forgotten
TTITLE9=Gary Allen - Songs about rain
TTITLE10=George Strait - Desparately
TTITLE11=George Strait - Tell me something bad about Tulsa
TTITLE12=Josh Turner - Long Black train
TTITLE13=Julie Roberts - Wake up older
TTITLE14=Kenny Chesney - Big Star
TTITLE15=var - Data Track
EXTD=
EXTT0=
EXTT1=
EXTT2=
EXTT3=
EXTT4=
EXTT5=
EXTT6=
EXTT7=
EXTT8=
EXTT9=
EXTT10=
EXTT11=
EXTT12=
EXTT13=
EXTT14=
EXTT15=
PLAYORDER=
